<svg width="44" height="74" viewBox="0 0 44 74" fill="none" xmlns="http://www.w3.org/2000/svg">
<path fill-rule="evenodd" clip-rule="evenodd" d="M5.19211 48.198C6.74305 45.0588 8.71927 43.4314 10.3276 43.027L10.8629 45.1808C10.1167 45.3684 8.56112 46.3679 7.16889 49.1858C5.79378 51.9691 4.63535 56.4316 4.63535 63.2699H2.42798C2.42798 56.1962 3.62407 51.3717 5.19211 48.198Z" fill="#322727"/>
<path fill-rule="evenodd" clip-rule="evenodd" d="M36.1622 46.1956C34.1229 43.353 31.9091 42.0716 30.2568 41.9366L30.078 44.1493C30.8446 44.2119 32.5415 44.9429 34.3722 47.4946C36.1803 50.0149 38.0471 54.2276 39.1564 60.9743L41.3342 60.6121C40.1867 53.6332 38.2241 49.0696 36.1622 46.1956Z" fill="#322727"/>
<path d="M1.64076 65.0972C0.478958 61.2539 3.52496 59.9221 4.46619 60.4212C5.40742 60.9203 4.81059 62.5434 4.94835 63.3923C5.0861 64.2412 6.16607 65.1533 6.24546 66.0844C6.32484 67.0155 6.53047 67.5631 5.28707 68.1299C4.04367 68.6967 2.41464 67.6573 1.64076 65.0972Z" fill="#FF5630"/>
<path d="M42.4964 62.2708C43.0192 58.2883 39.798 57.4741 38.9503 58.121C38.1027 58.7679 38.9548 60.2713 38.9566 61.1314C38.9583 61.9915 38.0408 63.0686 38.1135 64.0002C38.1862 64.9319 38.0722 65.5059 39.3909 65.8611C40.7096 66.2163 42.1482 64.9235 42.4964 62.2708Z" fill="#FF5630"/>
<path d="M8.97681 37.219L34.1408 35.668V61.346C34.1408 68.3346 28.5077 74 21.5588 74V74C14.61 74 8.97681 68.3346 8.97681 61.346V37.219Z" fill="#FF5630"/>
<path d="M17.6589 49.802C17.6589 50.8237 16.8354 51.948 15.8195 51.948C14.8035 51.948 13.98 51.1197 13.98 50.098C13.98 49.0763 14.8035 48.248 15.8195 48.248C16.8354 48.248 17.6589 48.7803 17.6589 49.802Z" fill="#322727"/>
<path d="M22.7839 51.1812C22.0729 51.911 20.7024 52.1345 19.9767 51.4195C19.251 50.7044 19.239 49.5331 19.95 48.8033C20.661 48.0735 21.8256 48.0615 22.5513 48.7765C23.277 49.4915 23.4949 50.4514 22.7839 51.1812Z" fill="#322727"/>
<path d="M25.6375 48.8792C26.424 48.2325 27.8108 48.1621 28.4538 48.9532C29.0968 49.7442 28.9804 50.9097 28.1939 51.5564C27.4074 52.2031 26.2485 52.086 25.6055 51.295C24.9625 50.504 24.851 49.5258 25.6375 48.8792Z" fill="#322727"/>
<path d="M5.11287 16.5122C5.22393 15.1579 6.40559 14.1505 7.75219 14.2622V14.2622C8.10655 14.2916 8.37013 14.6044 8.3409 14.9608L7.84951 20.9529C7.81611 21.3602 7.46072 21.6632 7.05573 21.6296L6.76241 21.6053C5.62844 21.5112 4.78499 20.5104 4.87851 19.37L5.11287 16.5122Z" fill="#322727"/>
<path d="M38.4087 19.4813C38.3236 20.8375 37.1615 21.8676 35.813 21.782V21.782C35.4581 21.7595 35.1886 21.452 35.211 21.0951L35.5874 15.0945C35.6129 14.6866 35.9625 14.3768 36.368 14.4025L36.6617 14.4212C37.7973 14.4932 38.6598 15.4775 38.5882 16.6195L38.4087 19.4813Z" fill="#322727"/>
<path fill-rule="evenodd" clip-rule="evenodd" d="M2.89196 16.5377C3.79789 17.2578 5.12784 17.686 7.06365 17.686V18.426C5.02619 18.426 3.51415 17.9754 2.43575 17.1183C1.35438 16.2589 0.758408 15.03 0.47595 13.5759C0.194537 12.1272 0.218939 10.4299 0.396105 8.5922C0.573485 6.75225 0.906958 4.74579 1.25607 2.67609L1.98149 2.79985C1.63161 4.87415 1.30287 6.85443 1.12846 8.66361C0.953831 10.475 0.936851 12.0892 1.19809 13.434C1.45828 14.7735 1.98899 15.8201 2.89196 16.5377Z" fill="#322727"/>
<path d="M3.67895 1.554C3.67895 2.57573 2.85539 3.7 1.83947 3.7C0.82356 3.7 0 2.87173 0 1.85C0 0.828273 0.82356 0 1.83947 0C2.85539 0 3.67895 0.532273 3.67895 1.554Z" fill="#FF5630"/>
<path fill-rule="evenodd" clip-rule="evenodd" d="M41.1083 17.2777C40.2024 17.9977 38.8724 18.426 36.9366 18.426V19.166C38.974 19.166 40.4861 18.7154 41.5645 17.8583C42.6459 16.9988 43.2418 15.77 43.5243 14.3159C43.8057 12.8672 43.7813 11.1699 43.6041 9.33219C43.4268 7.49224 43.0933 5.48578 42.7442 3.41608L42.0187 3.53984C42.3686 5.61414 42.6974 7.59442 42.8718 9.4036C43.0464 11.215 43.0634 12.8292 42.8022 14.174C42.542 15.5135 42.0112 16.5601 41.1083 17.2777Z" fill="#322727"/>
<path d="M40.3211 2.29405C40.3211 3.31578 41.1446 4.44005 42.1605 4.44005C43.1764 4.44005 44 3.61178 44 2.59005C44 1.56832 43.1764 0.740051 42.1605 0.740051C41.1446 0.740051 40.3211 1.27232 40.3211 2.29405Z" fill="#FF5630"/>
<path d="M36.3478 18.8809C36.3478 27.2183 29.5946 33.9771 21.2641 33.9771C12.9336 33.9771 6.18042 27.2183 6.18042 18.8809C6.18042 10.5435 12.9336 3.78467 21.2641 3.78467C29.8891 2.93004 37.0216 8.58762 36.3478 18.8809Z" fill="#FF5630"/>
<path d="M13.0429 14.5822C13.0737 14.028 13.5453 13.6039 14.0962 13.6349V13.6349C14.6472 13.6658 15.0689 14.1401 15.0381 14.6942L14.8541 18.0073C14.8233 18.5615 14.3517 18.9856 13.8008 18.9546V18.9546C13.2498 18.9237 12.8281 18.4494 12.8589 17.8953L13.0429 14.5822Z" fill="#322727"/>
<path d="M21.2378 14.6208C21.2439 14.0659 21.6961 13.621 22.2479 13.627V13.627C22.7996 13.6331 23.242 14.0879 23.236 14.6429L23.1998 17.9609C23.1938 18.5159 22.7416 18.9608 22.1898 18.9547V18.9547C21.638 18.9486 21.1956 18.4938 21.2017 17.9389L21.2378 14.6208Z" fill="#322727"/>
<path fill-rule="evenodd" clip-rule="evenodd" d="M16.1505 25.1469C16.239 24.9629 16.459 24.8859 16.6419 24.9748C17.2035 25.248 17.5932 25.375 17.96 25.3817C18.3202 25.3882 18.704 25.2789 19.2501 24.9824C19.4289 24.8853 19.6521 24.9524 19.7486 25.1322C19.8452 25.312 19.7785 25.5364 19.5997 25.6335C18.9964 25.9612 18.4833 26.1313 17.9467 26.1216C17.4166 26.1119 16.9094 25.9269 16.3216 25.6411C16.1387 25.5521 16.0621 25.3309 16.1505 25.1469Z" fill="#322727"/>
</svg>
