<svg width="44" height="74" viewBox="0 0 44 74" fill="none" xmlns="http://www.w3.org/2000/svg">
<path fill-rule="evenodd" clip-rule="evenodd" d="M38.8079 48.198C37.257 45.0588 35.2807 43.4314 33.6724 43.027L33.1371 45.1808C33.8833 45.3684 35.4389 46.3679 36.8311 49.1858C38.2062 51.9691 39.3647 56.4316 39.3647 63.2699H41.572C41.572 56.1962 40.3759 51.3717 38.8079 48.198Z" fill="#322727"/>
<path fill-rule="evenodd" clip-rule="evenodd" d="M7.83778 46.1956C9.87714 43.353 12.0909 42.0716 13.7432 41.9366L13.922 44.1493C13.1554 44.2119 11.4585 44.9429 9.62783 47.4946C7.81966 50.0149 5.95287 54.2276 4.84361 60.9743L2.66581 60.6121C3.81326 53.6332 5.77592 49.0696 7.83778 46.1956Z" fill="#322727"/>
<path d="M42.3592 65.0972C43.521 61.2539 40.475 59.9221 39.5338 60.4212C38.5926 60.9203 39.1894 62.5434 39.0517 63.3923C38.9139 64.2412 37.8339 65.1533 37.7545 66.0844C37.6752 67.0155 37.4695 67.5631 38.7129 68.1299C39.9563 68.6967 41.5854 67.6573 42.3592 65.0972Z" fill="#FF5630"/>
<path d="M1.5036 62.2708C0.980805 58.2883 4.20203 57.4741 5.04969 58.121C5.89734 58.7679 5.04522 60.2713 5.04344 61.1314C5.04165 61.9915 5.95919 63.0686 5.88648 64.0002C5.81377 64.9319 5.9278 65.5059 4.60911 65.8611C3.29043 66.2163 1.85183 64.9235 1.5036 62.2708Z" fill="#FF5630"/>
<path d="M35.0232 37.219L9.8592 35.668V61.346C9.8592 68.3346 15.4923 74 22.4412 74V74C29.39 74 35.0232 68.3346 35.0232 61.346V37.219Z" fill="#FF5630"/>
<path d="M26.3411 49.802C26.3411 50.8237 27.1646 51.948 28.1805 51.948C29.1965 51.948 30.02 51.1197 30.02 50.098C30.02 49.0763 29.1965 48.248 28.1805 48.248C27.1646 48.248 26.3411 48.7803 26.3411 49.802Z" fill="#322727"/>
<path d="M21.2161 51.1812C21.9271 51.911 23.2976 52.1345 24.0233 51.4195C24.749 50.7044 24.761 49.5331 24.05 48.8033C23.339 48.0735 22.1744 48.0615 21.4487 48.7765C20.723 49.4915 20.5051 50.4514 21.2161 51.1812Z" fill="#322727"/>
<path d="M18.3625 48.8792C17.576 48.2325 16.1892 48.1621 15.5462 48.9532C14.9032 49.7442 15.0196 50.9097 15.8061 51.5564C16.5926 52.2031 17.7515 52.086 18.3945 51.295C19.0375 50.504 19.149 49.5258 18.3625 48.8792Z" fill="#322727"/>
<path d="M38.8871 16.5122C38.7761 15.1579 37.5944 14.1505 36.2478 14.2622V14.2622C35.8934 14.2916 35.6299 14.6044 35.6591 14.9608L36.1505 20.9529C36.1839 21.3602 36.5393 21.6632 36.9443 21.6296L37.2376 21.6053C38.3716 21.5112 39.215 20.5104 39.1215 19.37L38.8871 16.5122Z" fill="#322727"/>
<path d="M5.59134 19.4813C5.6764 20.8375 6.83852 21.8676 8.18701 21.782V21.782C8.54187 21.7595 8.8114 21.452 8.78901 21.0951L8.41264 15.0945C8.38705 14.6866 8.03754 14.3768 7.63198 14.4025L7.33825 14.4212C6.20268 14.4932 5.3402 15.4775 5.41183 16.6195L5.59134 19.4813Z" fill="#322727"/>
<path fill-rule="evenodd" clip-rule="evenodd" d="M41.108 16.5377C40.2021 17.2578 38.8722 17.686 36.9364 17.686V18.426C38.9738 18.426 40.4859 17.9754 41.5643 17.1183C42.6456 16.2589 43.2416 15.03 43.524 13.5759C43.8055 12.1272 43.7811 10.4299 43.6039 8.5922C43.4265 6.75225 43.093 4.74579 42.7439 2.67609L42.0185 2.79985C42.3684 4.87415 42.6971 6.85443 42.8715 8.66361C43.0462 10.475 43.0631 12.0892 42.8019 13.434C42.5417 14.7735 42.011 15.8201 41.108 16.5377Z" fill="#322727"/>
<path d="M40.3211 1.554C40.3211 2.57573 41.1446 3.7 42.1605 3.7C43.1764 3.7 44 2.87173 44 1.85C44 0.828273 43.1764 0 42.1605 0C41.1446 0 40.3211 0.532273 40.3211 1.554Z" fill="#FF5630"/>
<path fill-rule="evenodd" clip-rule="evenodd" d="M2.89171 17.2777C3.79765 17.9977 5.12759 18.426 7.0634 18.426V19.166C5.02595 19.166 3.51391 18.7154 2.4355 17.8583C1.35413 16.9988 0.758164 15.77 0.475706 14.3159C0.194293 12.8672 0.218695 11.1699 0.395861 9.33219C0.573241 7.49224 0.906714 5.48578 1.25583 3.41608L1.98125 3.53984C1.63136 5.61414 1.30263 7.59442 1.12822 9.4036C0.953587 11.215 0.936607 12.8292 1.19784 14.174C1.45804 15.5135 1.98875 16.5601 2.89171 17.2777Z" fill="#322727"/>
<path d="M3.67895 2.29405C3.67895 3.31578 2.85539 4.44005 1.83947 4.44005C0.82356 4.44005 0 3.61178 0 2.59005C0 1.56832 0.82356 0.740051 1.83947 0.740051C2.85539 0.740051 3.67895 1.27232 3.67895 2.29405Z" fill="#FF5630"/>
<path d="M7.65222 18.8809C7.65222 27.2183 14.4054 33.9771 22.7359 33.9771C31.0664 33.9771 37.8196 27.2183 37.8196 18.8809C37.8196 10.5435 31.0664 3.78467 22.7359 3.78467C14.1109 2.93004 6.97836 8.58762 7.65222 18.8809Z" fill="#FF5630"/>
<path d="M30.9571 14.5822C30.9263 14.028 30.4547 13.6039 29.9038 13.6349V13.6349C29.3528 13.6658 28.9311 14.1401 28.9619 14.6942L29.1459 18.0073C29.1767 18.5615 29.6483 18.9856 30.1992 18.9546V18.9546C30.7502 18.9237 31.1719 18.4494 31.1411 17.8953L30.9571 14.5822Z" fill="#322727"/>
<path d="M22.7622 14.6208C22.7561 14.0659 22.3039 13.621 21.7521 13.627V13.627C21.2004 13.6331 20.758 14.0879 20.764 14.6429L20.8002 17.9609C20.8062 18.5159 21.2584 18.9608 21.8102 18.9547V18.9547C22.362 18.9486 22.8044 18.4938 22.7983 17.9389L22.7622 14.6208Z" fill="#322727"/>
<path fill-rule="evenodd" clip-rule="evenodd" d="M27.8495 25.1469C27.761 24.9629 27.541 24.8859 27.3581 24.9748C26.7965 25.248 26.4068 25.375 26.04 25.3817C25.6798 25.3882 25.296 25.2789 24.7499 24.9824C24.5711 24.8853 24.3479 24.9524 24.2514 25.1322C24.1548 25.312 24.2215 25.5364 24.4003 25.6335C25.0036 25.9612 25.5167 26.1313 26.0533 26.1216C26.5834 26.1119 27.0906 25.9269 27.6784 25.6411C27.8613 25.5521 27.9379 25.3309 27.8495 25.1469Z" fill="#322727"/>
</svg>
