<svg width="116" height="75" viewBox="0 0 116 75" fill="none" xmlns="http://www.w3.org/2000/svg">
<path d="M116 44.5L64 40.5L53 69L94.5 75L116 44.5Z" fill="url(#paint0_linear_116_530)" fill-opacity="0.14"/>
<path d="M74.5 2.01367L53.9002 9.75795L53.5905 69.5438L71.4023 49.8733L74.5 2.01367Z" fill="#957453"/>
<path d="M54.8295 9.91286L0.154907 6.50537L1.08422 61.18L53.5905 69.5438L54.8295 9.91286Z" fill="#BD9466"/>
<path d="M28.0343 0L0 6.66008L54.6746 10.2225L74.5 2.01351L28.0343 0Z" fill="#DBB582"/>
<path d="M21.9938 30.2026V8.05396L40.4252 0.532715L46.3108 0.774336L28.6539 8.51862L28.3441 30.2026H21.9938Z" fill="white" fill-opacity="0.16"/>
<path d="M14.869 3.09767L18.5863 2.32324L67.3753 4.9563L66.2911 25.0914L64.1227 26.4854L64.4324 6.19538L14.869 3.09767Z" fill="white" fill-opacity="0.12"/>
<defs>
<linearGradient id="paint0_linear_116_530" x1="58" y1="50.5" x2="87.5" y2="58" gradientUnits="userSpaceOnUse">
<stop/>
<stop offset="1" stop-opacity="0"/>
</linearGradient>
</defs>
</svg>
